<svg width="337" height="178" viewBox="0 0 337 178" fill="none" xmlns="http://www.w3.org/2000/svg">
<g clip-path="url(#clip0_3008_48762)">
<path d="M180.413 109.642C181.762 108.596 183.191 107.662 184.667 106.87C184.667 106.378 184.667 105.887 184.667 105.412C183.111 106.157 181.571 106.98 180.079 107.915C178.762 108.739 177.508 109.642 176.333 110.608C176.429 111.416 176.556 112.224 176.683 113.016C177.825 111.828 179.064 110.703 180.429 109.642H180.413Z" fill="#898852"/>
<path d="M268.444 170.158C268.397 169.841 268.476 169.54 268.683 169.334C268.683 169.271 268.683 169.208 268.683 169.144C268.683 168.875 268.635 168.622 268.619 168.352C267.683 168.764 266.73 169.081 265.81 169.271C263.143 169.826 260.73 169.667 258.492 168.986C258.397 169.556 258.238 170.111 258.063 170.649C261.46 171.774 265.032 171.822 268.524 170.744C268.492 170.538 268.46 170.333 268.429 170.127L268.444 170.158Z" fill="#898852"/>
<path d="M268.857 96.0815C265.079 99.5351 261.857 103.448 259.079 107.694C259.127 107.836 259.143 107.995 259.111 108.153C258.937 109.341 258.889 110.529 258.873 111.733C261.667 107.472 264.937 103.638 268.825 100.343C268.825 98.9172 268.873 97.5073 268.857 96.0815Z" fill="#898852"/>
<path d="M281.016 88.1128C279.889 88.2395 279 88.794 278.048 89.3326C275.365 90.8851 272.921 92.6277 270.651 94.5129C270.635 95.9862 270.603 97.4754 270.556 98.9487C272.746 97.2694 275.143 95.7644 277.746 94.4496C281.762 92.4218 281.81 92.501 281 88.1128H281.016Z" fill="#898852"/>
<path d="M281 147.79C279.556 139.092 273.413 132.851 266.778 127.116C263.54 124.328 260.349 121.476 256.73 119.1C255.794 118.482 255.397 117.627 256.064 116.423C256.492 115.646 256.921 114.902 257.365 114.141C257.286 113.999 257.206 113.856 257.191 113.682C257.079 112.811 257.016 111.923 257 111.036C256.333 112.161 255.698 113.318 255.095 114.474C254.016 116.549 253.365 116.597 251.54 115.25C241.746 108.09 231.81 101.119 222.318 93.626C216.381 88.9368 210.683 84.0575 206.254 78.0217C203.429 74.1721 201 69.9106 201.825 65.2373C203.175 57.6173 208.746 54.4014 217.191 55.5578C223.905 56.4767 230.159 58.5361 235.889 61.958C236.365 62.2431 237.508 62.9243 237.683 62.1639C238.032 60.6273 237.905 58.9797 237.857 57.3955C237.825 56.3024 236.714 56.6351 236.032 56.3499C233.889 55.4786 231.619 55.2727 229.365 54.9717C223.254 54.1638 217.238 53.0707 210.937 54.0687C202.079 55.4945 196.857 63.5422 198.27 71.3839C199.651 79.0039 204.508 84.8813 209.952 90.3309C213.587 93.9587 217.492 97.333 221.714 100.391C222.238 100.771 223.064 101.198 222.635 101.959C222.333 102.513 221.635 102.212 221.032 102.101C215.143 101.088 209.238 100.945 203.238 101.103C197.429 101.246 192.016 102.323 186.921 104.383C186.952 104.826 186.984 105.254 187.016 105.698C190.746 104.05 194.794 103.099 199.095 102.862C200.016 102.814 200.889 102.783 201.667 102.276C205.286 101.975 208.905 101.69 212.508 102.418C216.667 103.21 220.905 103.622 225.079 104.367C228.127 104.905 230.079 106.632 232.286 108.153C238.159 112.224 243.857 116.502 249.714 120.605C251.111 121.571 251.46 122.427 250.698 123.9C246.286 132.55 242.206 141.374 235.905 149.041C228.54 158.008 219.397 164.043 207.127 165.897C192.254 168.146 177.603 160.732 171.619 148.392C166.349 137.508 167.127 125.151 174.413 115.646C174.318 114.617 174.206 113.587 174.127 112.557C172.191 114.442 170.508 116.549 169.143 118.878C165.365 125.342 163.762 132.344 164.175 139.805C164.698 148.899 168.365 156.804 175.413 162.713C187.079 172.519 201.333 173.85 215.746 168.146C226.079 164.059 233.064 156.487 239 147.916C241.032 144.986 242.778 141.865 244.667 138.839C244.444 140.724 244.794 142.498 244.492 144.225C244.159 147.077 244.159 149.928 244.492 152.764C244.873 158.594 247.429 163.473 252.079 167.275C253.175 168.178 254.333 168.923 255.508 169.525C255.587 169.176 255.651 168.828 255.698 168.463C255.698 168.432 255.698 168.416 255.698 168.384C255.698 168.305 255.714 168.242 255.73 168.162C255.73 168.051 255.762 167.925 255.762 167.814C255.016 167.418 254.286 166.958 253.571 166.451C249.333 163.41 247.318 158.958 246.429 154.142C246.095 152.32 245.159 150.53 245.651 149.279C246.079 140.075 248.508 132.059 252.286 124.344C252.921 123.06 253.46 123.361 254.238 123.932C255.587 124.914 256.937 125.88 258.191 126.942C263.651 131.615 269.381 136.051 273.365 142.039C277.159 147.742 278.73 153.762 276.603 160.4C275.778 162.982 273.571 165.374 270.984 167.038C270.889 167.988 270.81 168.923 270.73 169.873C271.54 169.509 272.333 169.081 273.127 168.606C281.921 163.125 282.429 156.265 281.016 147.742L281 147.79Z" fill="#898852"/>
<path d="M182.873 158.451C183.365 158.784 183.762 159.227 184.19 159.655C184.762 160.225 185.397 160.653 186.111 161.033C187.714 161.873 189.444 162.348 191.206 162.728C192.349 162.982 193.492 163.251 194.651 163.457L172.063 16.0637C170.762 8.03186 169.667 0.871307 185.111 0.871307V0H162.921L109.19 163.235L55.0317 0H28.2857V0.871307C39.3809 0.871307 47.6508 9.12496 45.6825 18.0123L23.0635 166.483C21.9841 174.087 11.5397 177.113 0.0158691 177.113V177.984H45.9048V177.113C34.3809 177.113 22.8571 174.943 23.9365 167.338L47.6349 12.1508L102.667 178H114.19L109.841 164.978L160.508 11.2953L182.857 158.467L182.873 158.451Z" fill="#898852"/>
<path d="M184.254 167.639C185.254 168.115 186.206 168.669 187.27 169.033C188.73 169.525 190.27 169.746 191.794 170.016C193.524 170.317 195.238 170.554 196.984 170.729C195.984 169.509 195.333 168.115 195.111 166.499L195.032 165.944C192.73 165.754 190.429 165.152 188.333 164.313C187.016 163.79 185.698 163.124 184.492 162.317C184.127 162.158 183.762 161.984 183.397 161.81L184.238 167.37C184.238 167.465 184.254 167.56 184.27 167.639H184.254Z" fill="#898852"/>
<path d="M199.397 172.899C196.778 173.026 194.111 172.788 191.555 172.344C189.127 171.917 186.238 171.457 183.984 170.142C182.175 175.497 172.206 177.113 162.254 177.113V177.984H218.159V177.113C210.714 177.113 203.73 175.83 199.413 172.883L199.397 172.899Z" fill="#898852"/>
<path d="M265.778 127.718C264.286 126.292 262.714 124.961 261.159 123.615C260.318 122.886 259.476 122.173 258.619 121.46C258.508 121.365 258.397 121.286 258.27 121.207V126.561C258.27 126.561 258.413 126.593 258.492 126.624C259.651 127.258 260.683 128.145 261.683 129.001C262.698 129.872 263.762 130.712 264.778 131.583C266.349 132.93 267.794 134.419 269.143 135.971V130.791C267.984 129.809 266.873 128.779 265.778 127.733V127.718Z" fill="#898852"/>
<path d="M324.825 0H238.698V0.871306C254.143 0.871306 258.27 5.86152 258.27 16.0637V118.799C258.667 119.1 263.889 122.965 265.095 124.027C266.381 125.135 267.683 126.26 268.937 127.433C269.016 127.496 269.064 127.575 269.143 127.638V85.087H299.587C317.206 85.087 319.381 85.9584 322.429 103.099H322.651V65.9817H322.429C319.381 83.1226 317.206 83.9939 299.587 83.9939H269.143V1.09309H302.857C320.476 1.09309 325.905 8.90317 332.445 19.1054H332.667L324.841 0L324.825 0Z" fill="#898852"/>
<path d="M336.794 158.895C330.27 169.097 324.825 176.907 307.206 176.907H269.143V138.522C267.492 136.526 265.73 134.593 263.762 132.898C262.746 132.011 261.667 131.187 260.651 130.3C259.889 129.65 259.111 128.985 258.27 128.431V161.921C258.27 172.123 254.143 177.113 238.698 177.113V177.984H329.175L337 158.879H336.778L336.794 158.895Z" fill="#898852"/>
</g>
<defs>
<clipPath id="clip0_3008_48762">
<rect width="337" height="178" fill="white"/>
</clipPath>
</defs>
</svg>
